# xmcd
#
# Track frame offsets: 
#        150
#        17155
#        32685
#        46522
#        59380
#        72842
#        88637
#        99742
#        117905
#
# Disc length: 1768 seconds
#
# Revision: 3
# Processed by: cddbd v1.5.2PL0 Copyright (c) Steve Scherf et al.
# Submitted via: ExactAudioCopy v0.95a4
#
DISCID=6d06e609
DTITLE=The Judds - Christmas Time With The Judds
DYEAR=1987
DGENRE=Country
TTITLE0=Winter Wonderland
TTITLE1=Beautiful Star of Bethlehem
TTITLE2=Who Is This Babe
TTITLE3=Santa Claus Is Comin' to Town
TTITLE4=Silver Bells
TTITLE5=What Child Is This
TTITLE6=Away In A Manger
TTITLE7=Oh Holy Night
TTITLE8=Silent Night
EXTD=Year: 1987\n\n\n  \n                                             
EXTD=Merry Christmas from The Judds
EXTT0=
EXTT1=
EXTT2=
EXTT3=
EXTT4=
EXTT5=
EXTT6=
EXTT7=
EXTT8=
PLAYORDER=
